<?xml version="1.0" encoding="UTF-8"?>
<svg version="1.1" viewBox="0 0 1600 96" width="1280" height="1280" xmlns="http://www.w3.org/2000/svg">
<path transform="translate(175,11)" d="m0 0c2.57 0.77 4.67 1.6 7.06 2.75 6.4 2.83 11.9 4.07 18.9 4.25 4.18 0.341 7.07 1.47 10.8 3.38 8.07 4.15 14.4 6.12 23.5 4.96 5.55-0.675 11-0.723 16.4 0.48 7.64 1.12 17.3-3.56 23.8-7.12 3.97-1.91 6.14-1.76 10.5-1.69 6.8-1.25 13-3.14 19.1-6.43 1.94-0.574 1.94-0.574 3.91 0.156 0.668 0.419 1.34 0.838 2.02 1.27 7.2 4.45 12.5 5.47 21 4.98 3 0.0195 3 0.0195 6 2.02 5.52-0.376 10.1-2.55 15-5 0.557 0.454 1.11 0.907 1.69 1.38 2.21 1.7 2.21 1.7 4.68 2.5 3.7 1.58 6.33 4.06 9.36 6.66 2.75 1.76 4.08 1.95 7.28 1.46 2.17-1.21 4.05-2.61 6.04-4.1 1.96-0.898 1.96-0.898 3.78-0.27 0.722 0.452 1.44 0.905 2.19 1.37 2.31 1.19 4.62 2.38 6.94 3.56l1.84 0.959c5.84 3.13 5.84 3.13 12.2 2.85 4.05-0.73 7.68 2.51 11.1 4.48 2.89 1.46 2.89 1.46 5.65 0.438 0.766-0.424 1.53-0.848 2.32-1.29 4.37-2.23 7.03-3.15 11.9-2.88 4.83 0.168 7.31-1.05 11.2-3.82 2.79-1.94 5.73-3.03 8.88-4.3 0.646-0.406 1.29-0.812 1.96-1.23 0.674-0.254 1.35-0.508 2.04-0.77 1.96 0.898 1.96 0.898 3.94 2.38 2.26 1.68 3.69 2.56 6.48 3.02 3.45-0.533 5.22-2 7.96-4.15 8.4-6.35 8.4-6.35 12.6-8.25 1.88 0.805 1.88 0.805 4 2 1.63 0.626 3.28 1.21 4.94 1.75 0.834 0.284 1.67 0.567 2.53 0.859 3.15 0.485 4.63-0.402 7.54-1.61 2.06-0.0135 4.13 0.0546 6.19 0.188 6.68 0.129 11.3-1.49 16.8-5.19 0.66-0.66 1.32-1.32 2-2 4.02 0.393 7.49 1.95 11.2 3.5 4.96 1.95 9.24 3.01 14.5 3.34 5.95 0.43 10.8 2.34 16.1 5.07 2.59 1.28 5.21 2.4 7.9 3.47 1.34 0.538 1.34 0.538 2.7 1.09 3.24 0.668 4.64-0.143 7.61-1.46 2.14 0.0234 2.14 0.0234 4.25 0.375 3.98 0.573 7.78 0.678 11.8 0.562 1.95 0.0625 1.95 0.0625 4.95 1.06 1.95-0.454 1.95-0.454 3.98-1.33l2.34-0.926c0.802-0.329 1.6-0.657 2.43-0.996 0.786-0.313 1.57-0.626 2.38-0.949 3.6-1.44 7.16-2.93 10.7-4.54 2.91-1.15 4.18-1.52 7.17-1.13 7.3 0.302 15.9-2.88 22.3-6.35 1.74-0.773 1.74-0.773 4.74 0.227 3.01 1.51 6 3.07 8.99 4.62 5.16 2.36 8.46 2.35 14 1.49 1.97-0.113 1.97-0.113 4.97 1.01 4.33 1.26 6.98-0.413 11-2.12 3.16-1.07 4.97-1.42 8.09-0.152 4.04 2.15 7.56 4.64 11.1 7.53 3.02 2.31 3.02 2.31 6.81 2.75 2.9-0.917 2.9-0.917 4.62-2.39 2.27-1.63 3.57-2.37 6.38-2.74 6.49 2.07 12.4 6.26 18 10 1.7-0.371 1.7-0.371 3.44-0.75 5.42-0.934 9.2 1.89 13.7 4.6 2.77 1.46 2.77 1.46 5.5 0.438 1.16-0.636 1.16-0.636 2.34-1.29 4.37-2.23 7.03-3.15 11.9-2.88 4.8 0.16 7.26-1.01 11.1-3.75 2-1.42 4.02-2.57 6.2-3.69 0.624-0.326 1.25-0.652 1.89-0.988 1.86-0.699 1.86-0.699 5.86-0.699 2.06 0.953 3.95 2.07 5.9 3.22 2.8 1.04 4.27 0.709 7.1-0.223 2.19-1.47 2.19-1.47 4.25-3.31 8.48-6.78 8.48-6.78 13.8-7.69 2.29 0.711 4.06 1.71 6.09 2.96 3.64 1.97 7.39 1.38 11.3 0.496 2.73-0.481 4.99-0.358 7.74-0.148 5.86 0.0951 9.57-1.85 14.5-4.9 2.27-1.33 3.81-2.14 6.41-2.41 2.01 0.672 2.01 0.672 4.12 1.75 6.88 3.24 13.2 5.26 20.9 5.62 5.3 0.332 8.87 1.73 13.5 4.27 2.72 1.46 5.45 2.66 8.33 3.79 0.873 0.349 1.75 0.699 2.64 1.06 3.21 0.636 4.56-0.227 7.54-1.5 3.38-0.266 3.38-0.266 7-0.25 1.2-0.00516 2.39-0.0103 3.62-0.0156 3.38 0.266 3.38 0.266 5.78 1.45 4.1 1.29 7.2-0.361 11.1-1.87 1.12-0.405 1.12-0.405 2.26-0.818 4.03-1.49 7.58-3.22 11.2-5.49 3.3-0.751 6.42-1.02 9.81-1.19 5.72-0.549 11-2.77 16.2-4.91 5.39-2.07 5.39-2.07 8.15-1.24 0.592 0.441 1.18 0.882 1.79 1.34 9.22 5.07 9.22 5.07 19.5 5.44 3.5-0.437 3.5-0.437 6.31 0.75 5.52 1.41 10.3-1.73 15.2-4.19 7.42 3.14 13.9 7.87 20 13 0.82-0.456 1.64-0.913 2.48-1.38 1.08-0.575 2.16-1.15 3.27-1.74 1.07-0.58 2.13-1.16 3.23-1.76 3.02-1.12 3.02-1.12 5.03-0.484 0.656 0.451 1.31 0.902 1.99 1.37 0.96 0.474 1.92 0.949 2.91 1.44 1.56 0.773 1.56 0.773 3.15 1.56 1.04 0.516 2.09 1.03 3.16 1.56 2.78 1.44 2.78 1.44 5.78 3.44 2.01-0.291 4.01-0.584 6.01-0.898 3-0.153 4.61 1.17 6.99 2.9 1.64 0.722 3.31 1.39 5 2 0.603 0.245 1.21 0.49 1.83 0.742 3.19 0.379 4.7-1.02 7.36-2.74 4.9-2.86 7.33-3.22 12.8-2.11 3.28 0.181 4.93-1.51 7.36-3.55 1.78-1.4 3.41-2.19 5.51-3.03 3.22-1.09 3.22-1.09 5.19-3.31 3.06 0.226 4.75 1.47 7.38 3.12 2.46 1.41 3.59 1.87 6.5 2.06 3.9-1.48 6.54-3.78 9.77-6.38 3.54-2.72 6.84-5.21 11.4-5.81 2.83 0.986 5.13 2.23 7.64 3.86 3.44 1.66 5.71 0.707 9.17-0.488 2.19-0.375 2.19-0.375 5.81 0.312 5.85 0.852 11.4-1.58 16.1-4.92 0.492-0.378 0.985-0.755 1.49-1.14 1.36-0.804 1.36-0.804 2.75-1.62 2.71 0.734 2.71 0.734 6 2 9.61 3.89 9.61 3.89 19.8 5 4.79-0.322 8.13 1.55 12.4 3.62 7.93 3.8 14.6 6.09 23.4 4.64 2.72-0.288 4.81 0.168 7.47 0.738 1.49-0.278 1.49-0.278 3-0.562 3-0.437 3-0.437 5.16 0.703 4.29 1.3 7.28-0.252 11.3-1.83 1.12-0.405 1.12-0.405 2.26-0.818 3.13-1.16 5.9-2.28 8.71-4.12 3.69-2.01 7.4-2.25 11.5-2.75 7.42-1.01 13.7-2.66 20.6-5.64 2.37-0.988 2.37-0.988 4.37-0.988 1.01 0.991 2.01 1.99 3 3 6.42 4.24 12.5 4.34 20.1 4.04 2.94-0.043 2.94-0.043 4.94 0.957 4.83-0.0348 8.9-0.328 13.1-2.88 2.94-1.13 2.94-1.13 4.91-0.488 6.42 3.42 12.2 8 18 12.4l2.27-1.38c1.48-0.862 1.48-0.862 2.98-1.74l2.95-1.76c2.8-1.12 2.8-1.12 4.72-0.52 1.03 0.694 1.03 0.694 2.08 1.4 2.33 1.19 4.67 2.38 7 3.56l1.87 0.959c5.8 3.03 5.8 3.03 12.1 2.85 3.88-0.475 4.86 0.49 8.06 2.62 2.65 1.72 4.82 2.79 8 3 3.21-1.31 6.1-2.93 9.11-4.64 2.97-1.39 4.03-1.62 7.14-0.918 4.68 0.702 5.83-0.367 9.55-2.94 4.14-2.83 8.25-5.42 13.2-6.5 2.7 0.905 4.67 2.16 7.02 3.75 2.02 1.49 2.02 1.49 4.98 1.5 3.77-1.57 6.48-3.88 9.63-6.45 3.42-2.59 7.12-4.94 11.4-5.8l5 2v79h-1600v-72c1.98 0.99 3.96 1.98 6 3 5.01-0.104 8.02-2.07 12-5 2.44 1.21 4.86 2.44 7.28 3.69 1.22 0.624 2.44 1.25 3.66 1.87l1.84 0.959c4.69 2.38 8.28 3.59 13.5 3.29 4.08 0.208 6.31 1.23 9.79 3.21 2 1.03 3.66 1.68 5.89 1.97 0.66-0.66 1.32-1.32 2-2 5.34-3 8.59-3.17 14.6-1.93 3.49-0.0954 4.83-1.81 7.43-4.07 1.99-1.14 4.01-2.22 6.06-3.25 1.02-0.521 2.04-1.04 3.1-1.58 2.84-1.17 2.84-1.17 6.84-1.17 2.58 1.09 2.58 1.09 5.25 2.5l2.7 1.41 2.05 1.09c1.05-0.797 1.05-0.797 2.12-1.61 14-10.5 14-10.5 19.4-10.3 2.01 0.774 3.98 1.65 5.94 2.56 3.67 1.44 4.86 1.56 8.5 0.375 3.03-0.95 4.92-0.927 8-0.25 6.29 0.835 11.5-1.87 17-4.75 0.632-0.608 1.26-1.22 1.91-1.84 1.03-0.572 1.03-0.572 2.09-1.16z" fill="#F9FAFB"/>
<path transform="translate(1597,25)" d="m0 0h3v71h-1600v-33h2l1 16c0.99 0.33 1.98 0.66 3 1v2h3c-0.33-1.32-0.66-2.64-1-4l4 1v-11h6v6h15v3c1.67 0.0427 3.33 0.0406 5 0l1-1c2-0.0408 4-0.0425 6 0v4h2v-4h2v-2h7v5h6v-5h8v2h2v-2h12v8h3v-3h6v3h7c-0.33-0.99-0.66-1.98-1-3 2.56-0.196 5.12-0.382 7.69-0.562 1.08-0.0841 1.08-0.0841 2.19-0.17 3.9-0.267 7.34-0.276 11.1 0.732v3h12v-2c2.92-1.46 5.5-1.11 8.76-1.1 0.995 0.00212 0.995 0.00212 2.01 0.00429 2.12 0.0056 4.24 0.0182 6.36 0.0309 1.44 0.00501 2.87 0.00958 4.31 0.0137 3.52 0.011 7.04 0.0283 10.6 0.0488 0.33 0.66 0.66 1.32 1 2 14.8 0.495 14.8 0.495 30 1v-3c4.26-1.16 7.68-0.762 12 0v1h-6v2h46v-3c3.94-0.2 7.87-0.383 11.8-0.562l3.33-0.17c7.05-0.312 13.8-0.112 20.9 0.732v-5h12v5l2.69-0.562c3.16-0.418 5.26-0.245 8.31 0.562-1.32 0.33-2.64 0.66-4 1v2h9v-2c3.41-1.04 6.52-1.12 10.1-1.1l3.52 0.00977c1.81 0.0126 1.81 0.0126 3.66 0.0254 1.83 0.00677 1.83 0.00677 3.7 0.0137 3.02 0.0118 6.03 0.0282 9.05 0.0488v-5h6v5h29v3h4v-8h6v8h22v-2c1.13-0.0606 2.26-0.121 3.43-0.184 1.48-0.0844 2.96-0.169 4.45-0.254 0.746-0.0393 1.49-0.0786 2.26-0.119 4.06-0.159 4.06-0.159 7.86-1.44 1.71 0.087 3.42 0.241 5.12 0.438l2.76 0.309c0.699 0.0838 1.4 0.168 2.12 0.254 0.33-1.65 0.66-3.3 1-5h6c0.33 1.65 0.66 3.3 1 5 0.736-0.0838 1.47-0.168 2.23-0.254 1.46-0.153 1.46-0.153 2.96-0.309 0.963-0.104 1.93-0.209 2.92-0.316 2.84-0.119 5.15 0.201 7.89 0.879v-5h10c0.33 0.66 0.66 1.32 1 2h-2c0.33 0.66 0.66 1.32 1 2 2.53 0.656 2.53 0.656 5 1v-5h10v4c0.889-0.00222 1.78-0.00444 2.69-0.00673 8.39-0.0201 16.8-0.0353 25.2-0.0451 4.31-0.00521 8.62-0.0123 12.9-0.0236 4.16-0.0109 8.33-0.0168 12.5-0.0194 1.59-0.00184 3.17-0.00544 4.76-0.0109 2.23-0.00729 4.45-0.00826 6.68-0.0078 1.27-0.00222 2.53-0.00444 3.84-0.00673 3.24 0.113 6.27 0.504 9.45 1.12v-5h1v5c0.829-0.0707 1.66-0.141 2.51-0.214 9.07-0.718 18.1-0.944 27.2-0.911 0.692 8.86e-4 1.38 0.00177 2.1 0.00269 11.1 0.0166 22.1 0.324 33.2 1.12v3h22v-3c6.99-0.863 13.8-1.08 20.8-0.879 0.985 0.0236 1.97 0.0472 2.98 0.0715 3.11 0.0758 6.21 0.16 9.32 0.245 2.12 0.0533 4.24 0.106 6.37 0.158 5.17 0.128 10.3 0.264 15.5 0.404v-5h20l1 8h18v-2h57v-6h15c0.33 0.66 0.66 1.32 1 2h-2c0.33 0.66 0.66 1.32 1 2 2.59 0.468 2.59 0.468 5.56 0.625 1.01 0.0748 2.02 0.15 3.07 0.227 0.782 0.049 1.56 0.098 2.37 0.148v-5h13v4c2.31 0.33 4.62 0.66 7 1v-5c0.99 0.33 1.98 0.66 3 1l-2 1c0.33 0.66 0.66 1.32 1 2l19 1-2 1v2h3v-3c5.14-0.902 9.7-0.98 14.9-0.562 0.684 0.0522 1.37 0.104 2.07 0.158 1.66 0.128 3.33 0.265 4.99 0.404v-5h6v5h20v-5h8v5c2.96 0.0269 5.92 0.0468 8.88 0.0625 1.26 0.0126 1.26 0.0126 2.55 0.0254 0.806 0.00322 1.61 0.00645 2.44 0.00977 0.744 0.00524 1.49 0.0105 2.25 0.0159 1.97 0.00434 1.97 0.00434 3.88-1.11 0.59 0.153 1.18 0.306 1.79 0.464 2.71 0.656 4.83 0.409 7.6 0.106 6.81-0.641 13.6-0.711 20.4-0.7 1.34-0.00136 2.67-0.00314 4.01-0.00531 3.59-0.00451 7.18-0.00281 10.8 3.79e-4 3.78 0.00255 7.55 1.78e-4 11.3-0.00139 6.34-0.00181 12.7 5.61e-4 19 0.00534 7.3 0.00545 14.6 0.00367 21.9-0.00183 6.3-0.00455 12.6-0.00517 18.9-0.00256 3.75 0.00155 7.5 0.00179 11.2-0.00154 4.18-0.00345 8.36 0.00134 12.5 0.0069 1.23-0.00202 2.45-0.00405 3.72-0.00613 6.66 0.0164 13.2 0.308 19.8 1.14v3h8v-2h-2v-6h6v5h4v-5c0.99 0.33 1.98 0.66 3 1-0.66 0.33-1.32 0.66-2 1 0.33 0.66 0.66 1.32 1 2 2.42 0.47 2.42 0.47 5.35 0.633 1.08 0.0838 2.16 0.168 3.27 0.254 1.14 0.0786 2.27 0.157 3.44 0.238 1.71 0.13 1.71 0.13 3.46 0.262 2.83 0.213 5.65 0.417 8.48 0.613v-5h6v5c1.28-0.174 2.55-0.348 3.87-0.527 5.12-0.569 10.1-0.382 15.2-0.0352 0.866 0.0522 1.73 0.104 2.62 0.158 2.11 0.128 4.21 0.265 6.31 0.404v-6h6v6c1.49-0.495 1.49-0.495 3-1 2.33-0.0395 4.67-0.044 7 0v-5h7v5h15v-5h6c0.66 1.32 1.32 2.64 2 4 8.58 0.33 17.2 0.66 26 1v-5h16v5h4v-5h7v6h-7v2h14v-3c3.48-0.809 6.52-1.08 10.1-0.879 1.4 0.0725 1.4 0.0725 2.82 0.146l2.91 0.17c0.979 0.0522 1.96 0.104 2.97 0.158 2.41 0.129 4.81 0.264 7.22 0.404v1h-11v2h19v-2c-0.66-0.33-1.32-0.66-2-1 14-0.777 27.9-1.15 41.9-1.13 1.92-6.77e-4 3.84-0.00165 5.76-0.0029 3.98-0.00146 7.95 6.14e-4 11.9 0.00534 5.07 0.00574 10.1 0.00238 15.2-0.00357 3.94-0.00362 7.89-0.00246 11.8 1.28e-4 1.87 6.62e-4 3.74-1.33e-4 5.61-0.00248 17.8-0.0175 17.8-0.0175 26.7 1.14v-5h7v5c1.32-0.0174 1.32-0.0174 2.67-0.0352 1.16-0.00902 2.32-0.018 3.52-0.0273 1.15-0.0116 2.3-0.0232 3.48-0.0352 2.93 0.0857 5.5 0.419 8.33 1.1v2h9v-2h3v-6h13v6h-7v2h13v-2c1.18 0.0206 2.35 0.0412 3.56 0.0625 6.83 0.0109 13.6-0.56 20.4-1.06v-3h6v-2h6v2c0.536-0.33 1.07-0.66 1.62-1 2.91-1.23 5.24-1.14 8.38-1v6c1.49-0.495 1.49-0.495 3-1 2.33-0.0395 4.67-0.044 7 0v-5h5v4c1.65 0.33 3.3 0.66 5 1v-5h4v3h3v-3h6v4c2.97 0.33 5.94 0.66 9 1v-2c-0.99-0.33-1.98-0.66-3-1 0.33-0.66 0.66-1.32 1-2h2v-3c-1.65 0.33-3.3 0.66-5 1 0.0116-0.843 0.0232-1.69 0.0352-2.55 0.00902-1.1 0.018-2.19 0.0273-3.32 0.0116-1.09 0.0232-2.18 0.0352-3.3 0.0998-2.77 0.0998-2.77-1.1-4.82-2.53-0.656-2.53-0.656-5-1v-6h5v-9c0.66-0.33 1.32-0.66 2-1v9c0.99 0.33 1.98 0.66 3 1v-9c0.928-0.309 1.86-0.619 2.81-0.938 4.42-2.86 5-6.11 6.19-11.1h2c0.33-1.65 0.66-3.3 1-5z" fill="#FDFCFE"/>
<path transform="translate(1597,25)" d="m0 0h3v71h-16v-3h3v-11h-3v10c-0.99 0.495-0.99 0.495-2 1v-11h-3v5h-8v-5h-3v6h-6v-6h-5v5h-6v-5c-6.43 0.495-6.43 0.495-13 1v4h-11v-5c-0.944 0.244-0.944 0.244-1.91 0.492-4.21 0.691-8.33 0.652-12.6 0.633-1.26 0.0058-1.26 0.0058-2.55 0.0117-4.11-0.00648-7.94-0.101-11.9-1.14v-2c1.18 0.0206 2.35 0.0412 3.56 0.0625 6.83 0.0109 13.6-0.56 20.4-1.06v-3h6v-2h6v2c0.536-0.33 1.07-0.66 1.62-1 2.91-1.23 5.24-1.14 8.38-1v6c0.99-0.33 1.98-0.66 3-1 2.33-0.0395 4.67-0.044 7 0v-5h5v4c1.65 0.33 3.3 0.66 5 1v-5h4v3h3v-3h6v4c2.97 0.33 5.94 0.66 9 1v-2c-1.48-0.495-1.48-0.495-3-1 0.495-0.99 0.495-0.99 1-2h2v-3c-1.65 0.33-3.3 0.66-5 1 0.0116-0.843 0.0232-1.69 0.0352-2.55 0.00902-1.1 0.018-2.19 0.0273-3.32 0.0116-1.09 0.0232-2.18 0.0352-3.3 0.0998-2.77 0.0998-2.77-1.1-4.82-2.53-0.656-2.53-0.656-5-1v-6h5v-9c0.99-0.495 0.99-0.495 2-1v9c1.48 0.495 1.48 0.495 3 1v-9c0.928-0.309 1.86-0.619 2.81-0.938 4.42-2.86 5-6.11 6.19-11.1h2c0.33-1.65 0.66-3.3 1-5z" fill="#FAFCFE"/>
<path transform="translate(1600,17)" d="m0 0v8c-0.99 0.33-1.98 0.66-3 1-1.23 3.01-1.23 3.01-2 6h-2c-0.0928 1.64-0.0928 1.64-0.188 3.31-0.812 3.69-0.812 3.69-3.31 5.5-0.825 0.392-1.65 0.784-2.5 1.19-1.44 2.88-1.59 5.82-2 9-1.98-0.495-1.98-0.495-4-1v-3c-0.33 1.32-0.66 2.64-1 4-1.32-0.33-2.64-0.66-4-1v-6h-3c-0.33-1.65-0.66-3.3-1-5-1.45 1.45-1.56 3.04-2 5h-2c-0.33-1.65-0.66-3.3-1-5h-19c-0.495-0.99-0.495-0.99-1-2-0.763 0.0413-1.53 0.0825-2.31 0.125-2.69-0.125-2.69-0.125-5.69-2.12v-2c-1.96 0.618-3.92 1.24-5.88 1.88-1.09 0.348-2.18 0.696-3.3 1.05-2.91 0.882-2.91 0.882-4.82 3.07-2.88 0.375-2.88 0.375-6 0-2.38-2-2.38-2-4-4 2.76 0.523 5.33 1.11 8 2 2.74-1.26 2.74-1.26 5.69-3 6.55-3.46 6.55-3.46 10.6-2.56 4.68 0.702 5.83-0.367 9.55-2.94 4.14-2.83 8.25-5.42 13.2-6.5 2.7 0.905 4.67 2.16 7.02 3.75 2.02 1.49 2.02 1.49 4.98 1.5 3.78-1.58 6.53-3.88 9.7-6.45 5.49-4.28 9.54-7.18 16.3-3.8z" fill="#F9FAFB"/>
<path transform="translate(437,74)" d="m0 0h6c0.495 2.47 0.495 2.47 1 5 1.1-0.126 1.1-0.126 2.23-0.254 1.46-0.153 1.46-0.153 2.96-0.309 0.963-0.104 1.93-0.209 2.92-0.316 2.84-0.119 5.15 0.201 7.89 0.879v-5h10c0.495 0.99 0.495 0.99 1 2h-2c0.495 0.99 0.495 0.99 1 2 2.53 0.656 2.53 0.656 5 1v-5h10v4c0.889-0.00222 1.78-0.00444 2.69-0.00673 8.39-0.0201 16.8-0.0353 25.2-0.0451 4.31-0.00521 8.62-0.0123 12.9-0.0236 4.16-0.0109 8.33-0.0168 12.5-0.0194 1.59-0.00184 3.17-0.00544 4.76-0.0109 2.23-0.00729 4.45-0.00826 6.68-0.0078 1.27-0.00222 2.53-0.00444 3.84-0.00673 3.24 0.113 6.27 0.504 9.45 1.12v-5h1v5c1.24-0.106 1.24-0.106 2.51-0.214 9.07-0.718 18.1-0.944 27.2-0.911 0.692 8.86e-4 1.38 0.00177 2.1 0.00269 11.1 0.0166 22.1 0.324 33.2 1.12v3c-21.5 0.133-43 0.263-64.5 0.391-10 0.0594-20 0.12-30 0.182-49.2 0.305-98.3 0.511-147 0.427v-1h21v-2c1.13-0.0606 2.26-0.121 3.43-0.184 1.48-0.0844 2.96-0.169 4.45-0.254 0.746-0.0393 1.49-0.0786 2.26-0.119 4.06-0.159 4.06-0.159 7.86-1.44 1.71 0.087 3.42 0.241 5.12 0.438 0.91 0.102 1.82 0.204 2.76 0.309 0.699 0.0838 1.4 0.168 2.12 0.254 0.33-1.65 0.66-3.3 1-5z" fill="#FAFCFE"/>
<path transform="translate(8,32)" d="m0 0h6v2c0.904-0.0232 1.81-0.0464 2.74-0.0703 1.18-0.018 2.36-0.0361 3.57-0.0547 1.76-0.0348 1.76-0.0348 3.55-0.0703 3.14 0.195 3.14 0.195 6.14 2.2 2.39 0.295 4.79 0.493 7.19 0.625 1.91 0.112 1.91 0.112 3.86 0.227 0.976 0.049 1.95 0.098 2.96 0.148-1.32 0.33-2.64 0.66-4 1v6h3v-4c1.98 0.33 3.96 0.66 6 1v4h9c-1.32 0.33-2.64 0.66-4 1v3h7l-0.0625-2.44c0.0625-2.56 0.0625-2.56 1.06-3.56 1.67-0.0406 3.33-0.0427 5 0v6h5v-5h6v-3h-6v-2h5c0.33-0.99 0.66-1.98 1-3h6c0.495 4.95 0.495 4.95 1 10h-5v4c-2.31 0.33-4.62 0.66-7 1v4h-6v-2h-4v2h-9v3h-5l-1-3h-4c-0.495-1.98-0.495-1.98-1-4h-4c-0.33 0.66-0.66 1.32-1 2v-2h-5v6h-6v-13h2c-0.33-0.99-0.66-1.98-1-3h-6c-0.33 1.32-0.66 2.64-1 4-2 0.0425-4 0.0408-6 0-0.33-0.33-0.66-0.66-1-1h-6v-12z" fill="#FAFCFE"/>
<path transform="translate(1115,74)" d="m0 0h6v5h4v-5c0.99 0.33 1.98 0.66 3 1l-2 1c0.33 0.66 0.66 1.32 1 2 2.42 0.47 2.42 0.47 5.35 0.633 1.08 0.0838 2.16 0.168 3.27 0.254 1.14 0.0786 2.27 0.157 3.44 0.238 1.14 0.0864 2.28 0.173 3.46 0.262 2.83 0.213 5.65 0.417 8.48 0.613v-5h6v5c1.28-0.174 2.55-0.348 3.87-0.527 5.12-0.569 10.1-0.382 15.2-0.0352 1.3 0.0783 1.3 0.0783 2.62 0.158 2.11 0.128 4.21 0.265 6.31 0.404v-6h6v6c0.99-0.33 1.98-0.66 3-1 2.33-0.0395 4.67-0.044 7 0v-5h7v5h15v-5h6c0.99 1.98 0.99 1.98 2 4 12.9 0.495 12.9 0.495 26 1v-5h16v5h4v-5h7v6h-7v2c-10.6 0.134-21.2 0.264-31.8 0.391-4.93 0.0592-9.86 0.119-14.8 0.182-21.2 0.268-42.5 0.476-63.7 0.49-0.875 0.00129-1.75 0.00259-2.65 0.00392-15.7 0.0185-31.4-0.371-47.1-1.07v-2h-2v-6z" fill="#FAFCFE"/>
<path transform="translate(12,68)" d="m0 0h6v6h15v3c1.67 0.0427 3.33 0.0406 5 0 0.33-0.33 0.66-0.66 1-1 2-0.0408 4-0.0425 6 0v4h2v-4h2v-2h7v5h6v-5h8v2h2v-2h12v8h3v-3h6v3h5v1c-7.58 0.0234-15.2 0.041-22.7 0.0518-3.52 0.00518-7.04 0.0122-10.6 0.0236-4.07 0.0131-8.13 0.0178-12.2 0.0222-1.24 0.00516-2.48 0.0103-3.76 0.0156-8.3 5.22e-4 -16.5-0.416-24.7-1.11v5h-6v-2h-4c-0.33 0.66-0.66 1.32-1 2v-4h-6c0.66-0.33 1.32-0.66 2-1-0.33-1.32-0.66-2.64-1-4 1.98 0.495 1.98 0.495 4 1v-11z" fill="#FAFCFF"/>
<path transform="translate(18,22)" d="m0 0c2.44 1.21 4.86 2.44 7.28 3.69 1.22 0.624 2.44 1.25 3.66 1.87 0.608 0.316 1.22 0.633 1.84 0.959 4.69 2.38 8.28 3.59 13.5 3.29 4.08 0.208 6.31 1.23 9.79 3.21 2 1.03 3.66 1.68 5.89 1.97 0.66-0.66 1.32-1.32 2-2 2.37-0.301 4.74-0.495 7.12-0.625 1.28-0.0748 2.56-0.15 3.88-0.227 0.987-0.049 1.97-0.098 2.99-0.148 0.99 2.48 0.99 2.48 2 5-2.49 1.25-3.41 0.777-6 0v2h6v3h-6v5h-5v-6c-1.65 0.33-3.3 0.66-5 1l-1 5h-7l-1-3c-2.02-0.733-2.02-0.733-4-1v-4c-1.98-0.33-3.96-0.66-6-1v4h-3v-6c-0.687-0.049-1.37-0.098-2.08-0.148-0.901-0.0748-1.8-0.15-2.73-0.227-1.34-0.104-1.34-0.104-2.71-0.211-2.48-0.414-2.48-0.414-5.48-2.41-3.2-0.46-3.2-0.46-6.69-0.625-1.18-0.0748-2.36-0.15-3.57-0.227-1.36-0.0735-1.36-0.0735-2.74-0.148v-2c-1.33 0.124-1.33 0.124-2.69 0.25-4.06-0.306-5.37-1.54-8.31-4.25l-3-2c0.33-0.66 0.66-1.32 1-2 1.05 0.773 1.05 0.773 2.12 1.56 3.61 1.81 5.04 1.61 8.88 0.438 3.31-1.95 3.31-1.95 6-4z" fill="#E9EBEB"/>
<path transform="translate(945,78)" d="m0 0c0.733 0.153 1.47 0.306 2.22 0.464 2.96 0.571 5.24 0.438 8.23 0.106 6.79-0.645 13.5-0.711 20.3-0.7 1.34-0.00136 2.67-0.00314 4.01-0.00531 3.59-0.00451 7.18-0.00281 10.8 3.79e-4 3.78 0.00255 7.55 1.78e-4 11.3-0.00139 6.34-0.00181 12.7 5.61e-4 19 0.00534 7.3 0.00545 14.6 0.00367 21.9-0.00183 6.3-0.00455 12.6-0.00517 18.9-0.00256 3.75 0.00155 7.5 0.00179 11.2-0.00154 4.18-0.00345 8.36 0.00134 12.5 0.0069 1.23-0.00202 2.45-0.00405 3.72-0.00613 6.66 0.0164 13.2 0.308 19.8 1.14v3h-174v-3c0.638 0.0116 1.28 0.0232 1.93 0.0352 0.826 0.00902 1.65 0.018 2.5 0.0273 1.24 0.0174 1.24 0.0174 2.5 0.0352 2.06 0.135 2.06 0.135 3.07-1.1z" fill="#FAFDFF"/>
<path transform="translate(980,29)" d="m0 0h8v1h-8v-1zm-5 1h5v2c3.99 1.43 7.81 2.4 12 3-0.33 0.66-0.66 1.32-1 2-1.32-0.66-2.64-1.32-4-2 0.495 1.48 0.495 1.48 1 3h15v2h2v6c-1.13 0.124-2.27 0.248-3.44 0.375-1.18 0.206-2.35 0.412-3.56 0.625-0.33 0.66-0.66 1.32-1 2h-6v-3c-0.595 0.00524-1.19 0.0105-1.8 0.0159-2.69 0.0208-5.38 0.0338-8.07 0.0466-0.937 0.00838-1.87 0.0168-2.84 0.0254-1.34 0.00483-1.34 0.00483-2.71 0.00977-1.24 0.00786-1.24 0.00786-2.51 0.0159-2.06-0.114-2.06-0.114-4.06-1.11-0.625-2.56-0.625-2.56-1-5-1.98 0.267-1.98 0.267-4 1-0.33 0.99-0.66 1.98-1 3h-6c-0.66-2.31-1.32-4.62-2-7h-2v3h-2c0.33-1.65 0.66-3.3 1-5 5.03-0.625 9.92-1.12 15-1 2.88 0 5.29-1.06 8-2v-2z" fill="#FAFCFE"/>
<path transform="translate(802,74)" d="m0 0h15c0.495 0.99 0.495 0.99 1 2h-2c0.495 0.99 0.495 0.99 1 2 2.59 0.468 2.59 0.468 5.56 0.625 1.01 0.0748 2.02 0.15 3.07 0.227 0.782 0.049 1.56 0.098 2.37 0.148v-5h13v4c2.31 0.33 4.62 0.66 7 1v-5c0.99 0.33 1.98 0.66 3 1-0.66 0.33-1.32 0.66-2 1 0.495 0.99 0.495 0.99 1 2 6.27 0.33 12.5 0.66 19 1-0.66 0.33-1.32 0.66-2 1v2c-23.7 0.83-47.3 1.16-71 1.13-4.43-0.00582-8.87-0.00232-13.3 0.00357-3.48 0.00361-6.95 0.00247-10.4-1.28e-4 -1.64-6.61e-4 -3.27 1.28e-4 -4.91 0.00248-2.27 0.00255-4.53-0.00135-6.8-0.0069-1.92-0.00119-1.92-0.00119-3.88-0.00241-3.98-0.136-7.79-0.577-11.7-1.13v-2h57v-6z" fill="#FAFDFF"/>
<path transform="translate(1442,74)" d="m0 0h7v5c0.88-0.0116 1.76-0.0232 2.67-0.0352 1.74-0.0135 1.74-0.0135 3.52-0.0273 1.15-0.0116 2.3-0.0232 3.48-0.0352 2.93 0.0857 5.5 0.419 8.33 1.1v2h-142v-2c-0.66-0.33-1.32-0.66-2-1 14-0.777 27.9-1.15 41.9-1.13 1.92-6.77e-4 3.84-0.00165 5.76-0.0029 3.98-0.00146 7.95 6.14e-4 11.9 0.00534 5.07 0.00574 10.1 0.00238 15.2-0.00357 3.94-0.00362 7.89-0.00246 11.8 1.28e-4 1.87 6.62e-4 3.74-1.33e-4 5.61-0.00248 17.8-0.0175 17.8-0.0175 26.7 1.14v-5z" fill="#FAFDFF"/>
<path transform="translate(495,15)" d="m0 0c1.88 0.805 1.88 0.805 4 2 1.63 0.626 3.28 1.21 4.94 1.75 0.834 0.284 1.67 0.567 2.53 0.859 3.15 0.486 4.62-0.389 7.54-1.61 3.09-0.16 3.09-0.16 6.38-0.0625 4.7 0.08 9.01-0.0795 13.6-0.938-0.66 1.32-1.32 2.64-2 4h-4c-0.278 0.959-0.278 0.959-0.562 1.94-1.44 2.06-1.44 2.06-4.36 2.69-4.91 0.571-9.83 0.44-14.8 0.371-1.86-0.0256-3.72-0.0466-5.57-0.0625-1.22-0.0174-1.22-0.0174-2.47-0.0352-2.29 0.0983-4.13 0.27-6.27 1.1-0.33 0.99-0.66 1.98-1 3-5.41 0.772-10.5 1.1-16 1v-1c-1.05 0.103-2.1 0.206-3.19 0.312-4.77-0.391-5.61-1.94-8.81-5.31-2.71-0.42-2.71-0.42-5 0 0.66-0.99 1.32-1.98 2-3 2.72 1.01 5.06 2.04 7.5 3.62 2.93 1.61 4.2 1.77 7.5 1.38 2.74-1.59 2.74-1.59 5.38-3.75 8.4-6.35 8.4-6.35 12.6-8.25z" fill="#D9DCDD"/>
<path transform="translate(869 18)" d="m0 0c3.8 1.81 7.43 1.43 11.4 0.52 3.22-0.573 6.26-0.58 9.54-0.547 1.16 0.00902 2.32 0.018 3.52 0.0273 0.88 0.0116 1.76 0.0232 2.67 0.0352-0.495 1.13-0.99 2.27-1.5 3.44-1.56 3.07-1.56 3.07-1.5 4.56-0.973-0.0105-1.95-0.0209-2.95-0.0317-3.62-0.0363-7.25-0.0592-10.9-0.0781-1.57-0.01-3.13-0.0237-4.7-0.041-2.26-0.0244-4.51-0.0356-6.77-0.0444-0.696-0.0103-1.39-0.0206-2.11-0.0313-5.04-0.00115-8.63 0.735-12.7 3.79-2.06 1.53-3.38 2.19-5.94 2.44-0.99-0.66-1.98-1.32-3-2-1.99-0.204-1.99-0.204-4.06-0.0625-3.94 0.0625-3.94 0.0625-5.94-0.938v-2c-1.67 0.0619-1.67 0.0619-3.38 0.125-3.62-0.125-3.62-0.125-5.62-2.12 1.69-1.62 1.69-1.62 4-3 2.98 0.785 5.31 2.18 8 3.69 3.46 1.51 4.47 1.39 8 0.312 2.23-1.47 2.23-1.47 4.31-3.31 11.4-9.07 11.4-9.07 19.5-4.72z" fill="#D9DDDE"/>
<path transform="translate(1235 18.9)" d="m0 0c3.65 1.59 5.89 0.77 9.49-0.551 3.89-0.573 7.66 0.956 11.1 2.69-0.33 1.32-0.66 2.64-1 4-7.85 1.81-16.1 1.44-24 0-0.526 0.99-0.526 0.99-1.06 2-1.94 2-1.94 2-5.56 2.25-1.67-0.124-1.67-0.124-3.38-0.25-1.09 0-2.17 0.132-3.25 0.254-1.36 0.153-1.36 0.153-2.75 0.309-0.908 0.104-1.82 0.209-2.75 0.316-1.11 0.0599-1.11 0.0599-2.25 0.121-0.33-0.33-0.66-0.66-1-1-1.85-0.0723-3.71-0.0838-5.56-0.0625-1.01 0.00902-2.02 0.018-3.07 0.0273-0.782 0.0116-1.56 0.0232-2.37 0.0352v-2c-4.28-0.268-7.31-0.0473-11.3 1.56-1.22 0.474-2.43 0.949-3.69 1.44-0.66-0.33-1.32-0.66-2-1 0.699-0.338 1.4-0.675 2.12-1.02 0.91-0.446 1.82-0.892 2.76-1.35 0.905-0.441 1.81-0.882 2.74-1.34 2.48-1.19 2.48-1.19 4.38-3.29 3.06 0.226 4.75 1.47 7.38 3.12 2.46 1.41 3.59 1.87 6.5 2.06 3.91-1.49 6.6-3.78 9.84-6.38 7.24-5.74 10.3-6.75 18.7-1.95z" fill="#D2D5D6"/>
<path transform="translate(1277,14)" d="m0 0c1.94 0.478 3.88 0.957 5.81 1.44 1.62 0.4 1.62 0.4 3.27 0.809 1.99 0.515 3.97 1.1 5.92 1.75 1.33-0.0556 2.67-0.142 4-0.25 5.08-0.0657 8.61 1.67 13.1 3.87 7.93 3.8 14.6 6.09 23.4 4.64 2.72-0.288 4.81 0.174 7.47 0.738 1.52-0.309 1.52-0.309 3.06-0.625 2.94-0.375 2.94-0.375 5.06 0.938 0.619 0.557 1.24 1.11 1.88 1.69 1.32 0.69 2.65 1.36 4 2-6.94 0.0253-13.9 0.0428-20.8 0.0549-2.36 0.00504-4.73 0.0119-7.09 0.0205-3.39 0.0121-6.78 0.0178-10.2 0.0222-1.06 0.00516-2.12 0.0103-3.22 0.0156-0.981 7.55e-5 -1.96 1.51e-4 -2.97 2.29e-4 -1.3 0.00333-1.3 0.00333-2.62 0.00673-2.1-0.12-2.1-0.12-4.1-1.12-0.66-0.99-1.32-1.98-2-3h-2v-2c-1.92-0.186-1.92-0.186-3.88-0.375-3.88-0.375-3.88-0.375-6.12-2.62-1.99-0.398-3.99-0.738-6-1v-2h-3c-1.69-2.5-1.69-2.5-3-5z" fill="#DBDEDF"/>
<path transform="translate(679,15)" d="m0 0c0.888 0.307 0.888 0.307 1.79 0.621 6.63 2.26 11.2 3.59 18.2 2.49 1.97-0.113 1.97-0.113 4.97 1.01 4.33 1.26 6.98-0.413 11-2.12 3.16-1.07 4.97-1.42 8.09-0.152 4.03 2.14 7.48 4.6 11 7.53 2.22 1.75 3.37 2.59 6.21 2.78 2.46-0.266 2.46-0.266 5.72-1.16-2 3-2 3-5.12 3.69-0.949 0.103-1.9 0.206-2.88 0.312v1c-1.77 0.0811-3.54 0.139-5.31 0.188-0.986 0.0348-1.97 0.0696-2.99 0.105-2.7-0.293-2.7-0.293-4.55-1.68-1.14-1.61-1.14-1.61-1.14-3.61h-6c0.33-1.32 0.66-2.64 1-4-1.2 0.309-2.39 0.619-3.62 0.938-7.19 1.76-13 2.01-20.4 1.06v2c-2.97-0.33-5.94-0.66-9-1-0.268-0.804-0.536-1.61-0.812-2.44-0.392-0.846-0.784-1.69-1.19-2.56-0.99-0.33-1.98-0.66-3-1v-2h-2v-2z" fill="#D1D5D6"/>
<path transform="translate(1341 33.9)" d="m0 0c1.53 0.00677 1.53 0.00677 3.1 0.0137 2.51 0.0117 5.02 0.0281 7.53 0.0488v5h12v6c-1 1-1 1-3.56 1.06-0.804-0.0206-1.61-0.0412-2.44-0.0625v4c-2.97-0.33-5.94-0.66-9-1v-3h-2v-6h-15v5c-2.71 1.35-5.01 1.07-8 1v-11c5.79-1.25 11.5-1.11 17.4-1.06z" fill="#FAFCFF"/>
<path transform="translate(1043,14)" d="m0 0c0.822 0.373 1.64 0.745 2.49 1.13 6.59 2.79 11.3 4.4 18.4 3.12 2.13-0.25 2.13-0.25 5.13 0.938 5.37 1.45 10.2-1.79 15-4.19 7.42 3.14 13.9 7.87 20 13-0.66 0.99-1.32 1.98-2 3-1.63-0.06-3.25-0.149-4.88-0.25-1.36-0.0696-1.36-0.0696-2.74-0.141-0.786-0.201-1.57-0.402-2.38-0.609-0.285-0.661-0.57-1.32-0.863-2-0.375-0.659-0.75-1.32-1.14-2-2.56-0.454-4.74-0.65-7.31-0.688-1.45-0.0522-2.9-0.106-4.35-0.16-0.727-0.0221-1.45-0.0442-2.2-0.0669-4.13-0.166-8.25-0.608-12.4-1-2.77-0.206-2.77-0.206-5.41 0.539-2.36 0.375-2.36 0.375-4.28-0.586-0.565-0.467-1.13-0.933-1.71-1.41-2.27-1.84-3.53-2.68-6.38-3.62v-2c-0.99-0.33-1.98-0.66-3-1v-2z" fill="#D3D6D7"/>
<path transform="translate(451,35)" d="m0 0v4c0.99-0.33 1.98-0.66 3-1 6.39-0.392 12.7 0.183 19 1v4c1.98 0.33 3.96 0.66 6 1v6h-9c-0.495-1.98-0.495-1.98-1-4h-11c-0.33 0.99-0.66 1.98-1 3h-6c-0.33-1.32-0.66-2.64-1-4h-8c-0.0743-3.34-0.0655-5.8 1-9-2.64-0.33-5.28-0.66-8-1v-1c1.73-0.224 3.46-0.428 5.19-0.625 1.44-0.174 1.44-0.174 2.92-0.352 3.14-0.0254 5.09 0.633 7.89 1.98z" fill="#FAFCFE"/>
<path transform="translate(706,74)" d="m0 0h20c0.495 3.96 0.495 3.96 1 8h-76v-3c6.99-0.863 13.8-1.08 20.8-0.879 0.985 0.0236 1.97 0.0472 2.98 0.0715 3.11 0.0758 6.21 0.16 9.32 0.245 2.12 0.0533 4.24 0.106 6.37 0.158 5.17 0.128 10.3 0.264 15.5 0.404v-5z" fill="#FAFDFF"/>
<path transform="translate(1548,37)" d="m0 0v2c0.675-0.162 1.35-0.325 2.05-0.492 3.44-0.592 6.71-0.64 10.2-0.633 1.24-0.00258 2.49-0.00516 3.77-0.00781 2.98 0.133 2.98 0.133 3.98 1.13 0.0406 1.67 0.0427 3.33 0 5h2v-6c0.99 0.33 1.98 0.66 3 1v5c0.99-0.33 1.98-0.66 3-1 1 1 1 1 1.06 4.06-0.0206 0.969-0.0412 1.94-0.0625 2.94h-9v-5h-6v4h-8c-0.33-0.99-0.66-1.98-1-3h-10v-5h-7v-2h6v-2c3-1 3-1 6 0z" fill="#FAFCFE"/>
<path transform="translate(134,17)" d="m0 0c1.16 0.536 2.31 1.07 3.5 1.62 3.67 1.44 4.86 1.56 8.5 0.375 3.04-0.962 4.98-1.01 8.06-0.188 0.672 0.171 1.34 0.343 2.04 0.52 1.9 0.668 1.9 0.668 4.9 2.67-1 2-1 2-3.35 3.15-5.09 1.19-9.83 0.811-15 0.477-1.53-0.0851-1.53-0.0851-3.1-0.172-2.51-0.141-5.02-0.292-7.53-0.453-0.33 0.66-0.66 1.32-1 2-1.96 0.344-1.96 0.344-4.38 0.5-3.52 0.229-4.55 0.453-7.62 2.5-2.32 0.394-4.66 0.735-7 1-0.66-0.99-1.32-1.98-2-3 17.7-13.4 17.7-13.4 24-11z" fill="#D7DBDC"/>
<path transform="translate(650 18.8)" d="m0 0c0.865 0.213 1.73 0.425 2.62 0.645 0.641 0.179 1.28 0.358 1.94 0.543-3.66 4.51-6.83 5.87-12.4 7.31-2.34 0.622-4.47 1.42-6.71 2.31-10 3.33-21.7 2.47-32.2 2.56-0.914 0.0131-1.83 0.0263-2.77 0.0398-0.856 0.00105-1.71 0.00209-2.59 0.00317-0.762 0.00411-1.52 0.00822-2.31 0.0125-2.01-0.243-2.01-0.243-5.01-2.24 0.763-0.103 1.53-0.206 2.31-0.312 2.72-0.431 2.72-0.431 4.1-2.25 1.59-1.44 1.59-1.44 3.54-1.51 0.719 0.128 1.44 0.255 2.18 0.387 4.04 0.613 7.85 0.742 11.9 0.625 1.95 0.0625 1.95 0.0625 4.95 1.06 1.95-0.454 1.95-0.454 3.98-1.33 0.771-0.306 1.54-0.611 2.34-0.926 0.802-0.329 1.6-0.657 2.43-0.996 0.786-0.313 1.57-0.626 2.38-0.949 4.45-1.77 4.45-1.77 8.81-3.73 3.91-1.86 6.29-2.35 10.5-1.25z" fill="#C9CCCD"/>
<path transform="translate(18,22)" d="m0 0c2.44 1.21 4.86 2.44 7.28 3.69 1.22 0.624 2.44 1.25 3.66 1.87 0.608 0.316 1.22 0.633 1.84 0.959 4.83 2.45 8.45 3.54 13.8 3.35 3.38 0.125 3.38 0.125 6.38 3.12h-11c-0.33 0.66-0.66 1.32-1 2-1.44 0.0542-2.87 0.0929-4.31 0.125-0.801 0.0232-1.6 0.0464-2.43 0.0703-2.26-0.195-2.26-0.195-5.26-2.2-3.2-0.46-3.2-0.46-6.69-0.625-1.18-0.0748-2.36-0.15-3.57-0.227-1.36-0.0735-1.36-0.0735-2.74-0.148v-2c-1.33 0.124-1.33 0.124-2.69 0.25-4.06-0.306-5.37-1.54-8.31-4.25l-3-2c0.33-0.66 0.66-1.32 1-2 1.05 0.773 1.05 0.773 2.12 1.56 3.61 1.81 5.04 1.61 8.88 0.438 3.31-1.95 3.31-1.95 6-4z" fill="#DADBDC"/>
<path transform="translate(892,74)" d="m0 0h6v5h20v-5h8v5h8v3h-64v-3c5.14-0.902 9.7-0.98 14.9-0.562 1.03 0.0783 1.03 0.0783 2.07 0.158 1.66 0.128 3.33 0.265 4.99 0.404v-5z" fill="#FAFCFE"/>
<path transform="translate(192,18)" d="m0 0c8.57-0.833 14.3 0.618 21.9 4.46 7.38 3.67 13.2 4.92 21.4 3.87 5.68-0.69 11.3-0.596 17 0.23 3.57 0.417 6.26 0.222 9.75-0.562-3.24 2.92-5.32 3.36-9.64 3.29-1.6-0.0145-1.6-0.0145-3.24-0.0293-1.11-0.0251-2.22-0.0503-3.37-0.0762-1.69-0.0203-1.69-0.0203-3.41-0.041-2.78-0.0353-5.56-0.0847-8.34-0.146-0.33 0.66-0.66 1.32-1 2-2.54 0.0815-5.08 0.141-7.62 0.188l-2.16 0.0762c-4.89 0.0673-7.86-0.833-12.2-3.26h-3c-0.33-0.66-0.66-1.32-1-2-2.32-0.407-4.66-0.744-7-1v-2c-2.31-0.33-4.62-0.66-7-1-0.33-1.32-0.66-2.64-1-4z" fill="#9FA2A2"/>
<path transform="translate(1392,18)" d="m0 0c-1 2-1 2-4 3.44-3.29 1.27-3.29 1.27-4 4.56-1.01 0.182-1.01 0.182-2.05 0.367-0.892 0.168-1.78 0.335-2.7 0.508-1.32 0.244-1.32 0.244-2.67 0.492-2.54 0.506-2.54 0.506-4.49 1.69-2.95 1.33-5.5 1.17-8.71 1.13-1.15-0.00645-2.29-0.0129-3.48-0.0195-2.9-0.168-2.9-0.168-4.9-1.17-1.33-0.352-2.66-0.688-4-1 1.17-0.398 2.34-0.797 3.54-1.21 1.55-0.535 3.1-1.07 4.64-1.61 0.769-0.261 1.54-0.522 2.33-0.791 3.25-1.13 6.13-2.18 9.06-4.02 3.28-1.87 6.26-2.17 9.98-2.63 1.3-0.17 2.6-0.34 3.94-0.516 2.92-0.196 4.79-0.2 7.5 0.766z" fill="#C6C9CA"/>
<path transform="translate(243,34)" d="m0 0v11c-3.05 1.53-5.76 0.838-9.12 0.562-1.28-0.102-2.56-0.204-3.88-0.309-0.987-0.0838-1.97-0.168-2.99-0.254v4h-6v-4h-3v-6h10c0.33-0.99 0.66-1.98 1-3v3c4.46-0.495 4.46-0.495 9-1h-5v-2c-0.99-0.33-1.98-0.66-3-1 4.46-0.604 8.48-1 13-1z" fill="#FAFDFF"/>
<path transform="translate(283,74)" d="m0 0h12v5c1.33-0.278 1.33-0.278 2.69-0.562 3.16-0.418 5.26-0.245 8.31 0.562-1.32 0.33-2.64 0.66-4 1v2h-25v-2h-5v2h-25v-3c3.94-0.2 7.87-0.383 11.8-0.562 1.1-0.0561 2.2-0.112 3.33-0.17 7.05-0.312 13.8-0.112 20.9 0.732v-5z" fill="#FAFDFF"/>
<path transform="translate(1452 15.7)" d="m0 0c6.22 2.94 11.5 6.92 16.8 11.3-0.33 0.99-0.66 1.98-1 3-5.62 0.25-5.62 0.25-9-2-0.495-1.48-0.495-1.48-1-3-1.97-0.735-1.97-0.735-4.31-1.06-3.25-0.563-5.79-1.34-8.69-2.94-0.33 0.495-0.66 0.99-1 1.5-3.13 2.35-6.29 1.99-10 1.5-4.58-1.17-8.8-2.83-13-5 1.96-0.195 3.92-0.38 5.88-0.562 1.64-0.157 1.64-0.157 3.3-0.316 2.82-0.121 2.82-0.121 4.82 0.879 4.6-0.0326 8.76-0.068 12.5-2.88 2.5-1.12 2.5-1.12 4.7-0.453z" fill="#D2D5D6"/>
<path transform="translate(341,74)" d="m0 0h6v5h29v3h-65v-2c3.41-1.04 6.52-1.12 10.1-1.1 1.16 0.00322 2.32 0.00645 3.52 0.00977 1.81 0.0126 1.81 0.0126 3.66 0.0254 1.83 0.00677 1.83 0.00677 3.7 0.0137 3.02 0.0118 6.03 0.0282 9.05 0.0488v-5z" fill="#FAFCFE"/>
<path transform="translate(760,49)" d="m0 0h6v2h5v6h-6v-2h-4v5h-6v-3h-13v-6h18v-2z" fill="#FAFDFF"/>
<path transform="translate(927 17.9)" d="m0 0c7.6 0.254 13.7 0.79 20.4 4.71 4.22 2.37 8.83 3.79 13.4 5.34-0.619 0.144-1.24 0.289-1.88 0.438-2.16 0.494-2.16 0.494-4.12 1.56-5.73 0.443-10.6 0.15-16-2-1.22-0.33-2.43-0.66-3.69-1-3.31-1-3.31-1-6.31-3v-2c-0.619-0.124-1.24-0.247-1.88-0.375-2.12-0.625-2.12-0.625-4.12-2.62 1-1 1-1 4.25-1.05z" fill="#CACDCE"/>
<path transform="translate(558,18)" d="m0 0c6.85-0.335 11.8-0.124 18 3 1.83 0.685 3.66 1.35 5.5 2 4.24 1.52 8.38 3.17 12.5 5-0.99 0.33-1.98 0.66-3 1-0.66 0.33-1.32 0.66-2 1-1.98 0.0712-3.96 0.0841-5.94 0.0625-1.06-0.00902-2.12-0.018-3.21-0.0273-0.94-0.0116-1.88-0.0232-2.85-0.0352h-3c-0.619-0.65-0.619-0.65-1.25-1.31-2.54-2.45-5.5-3.38-8.75-4.69-1.34-0.652-2.68-1.31-4-2-0.66-0.33-1.32-0.66-2-1v-3z" fill="#C9CCCD"/>
<path transform="translate(1196 38.4)" d="m0 0c0.802 0.0522 1.6 0.104 2.43 0.158 1.98 0.13 3.96 0.266 5.95 0.404v5h7v6h-7v-5c-5.94 0.495-5.94 0.495-12 1v3h-6c-0.33-3.3-0.66-6.6-1-10 3.33-1.66 7-0.819 10.6-0.562z" fill="#FAFCFF"/>
<path transform="translate(661,34)" d="m0 0h17c-2 7-2 7-4 11h-16v-5c-0.66-0.33-1.32-0.66-2-1h5v-5z" fill="#FAFCFE"/>
<path transform="translate(610,34)" d="m0 0c2 2 2 2 2.2 4.16-0.0232 0.812-0.0464 1.62-0.0703 2.46-0.018 0.817-0.0361 1.63-0.0547 2.48-0.0232 0.626-0.0464 1.25-0.0703 1.9-6.33 0.904-11.7 0.904-18 0 0.33-3.3 0.66-6.6 1-10 5.08-0.846 9.85-1.26 15-1z" fill="#FAFCFF"/>
<path transform="translate(1390,34)" d="m0 0h9v4c4.29 0.33 8.58 0.66 13 1v6c-6.21 1.08-13.1 2.19-19.3 0.309-1.75-1.31-1.75-1.31-2.36-3.69-0.0464-0.905-0.0928-1.81-0.141-2.74-0.0567-0.91-0.113-1.82-0.172-2.76-0.0258-0.699-0.0516-1.4-0.0781-2.12z" fill="#FAFDFF"/>
<path transform="translate(311,14)" d="m0 0c0.839 0.433 0.839 0.433 1.7 0.875 6.62 3.06 12.1 3.44 19.3 3.07 3 0.0547 3 0.0547 6 2.05 2.3 0.0264 2.3 0.0264 4.69-0.375 0.808-0.111 1.62-0.222 2.45-0.336 0.615-0.0954 1.23-0.191 1.86-0.289-0.875 2.5-0.875 2.5-3 5-2.53 0.304-4.91 0.179-7.45 0.043-2.75-0.17-2.75-0.17-6.05 0.957-4.56 1.3-8.79 1.17-13.5 1v-6c-0.99-0.33-1.98-0.66-3-1v-2c-0.99-0.33-1.98-0.66-3-1v-2z" fill="#D5D8D9"/>
<path transform="translate(617,39)" d="m0 0c3.02-0.0272 6.04-0.0469 9.06-0.0625 0.848-0.00838 1.7-0.0168 2.57-0.0254 4.91-0.0189 9.53 0.255 14.4 1.09v6c-17.9 0.185-17.9 0.185-26-1v-6z" fill="#FAFDFF"/>
<path transform="translate(352,15)" d="m0 0c1.08 0.681 1.08 0.681 2.19 1.38 2.67 1.65 2.67 1.65 5.19 2.52 2.83 1.19 5 2.63 7.44 4.48 0.79 0.585 1.58 1.17 2.39 1.77 1.79 1.85 1.79 1.85 1.79 5.85-4.45 1.48-4.45 1.48-9 3-0.33-0.99-0.66-1.98-1-3-0.639-0.474-1.28-0.949-1.94-1.44-2.29-1.73-3.09-2.89-4.06-5.56v-4h-6v-3c0.99-0.66 1.98-1.32 3-2z" fill="#D7DADB"/>
<path transform="translate(1128,37)" d="m0 0c0.99 0.33 1.98 0.66 3 1 0.66-0.33 1.32-0.66 2-1 2.33-0.0402 4.67-0.0432 7 0v1c-2.64 0.33-5.28 0.66-8 1v5c-8.04 2.07-15.7 2.21-24 2v-6c1.28-0.133 2.55-0.266 3.87-0.402 1.67-0.178 3.34-0.357 5.01-0.535 0.842-0.087 1.68-0.174 2.55-0.264 1.21-0.131 1.21-0.131 2.44-0.264 0.744-0.0786 1.49-0.157 2.25-0.238 1.96-0.213 1.96-0.213 3.88-1.3z" fill="#FAFDFF"/>
<path transform="translate(1016 18.9)" d="m0 0c0.799 0.195 1.6 0.389 2.42 0.59 0.603 0.156 1.21 0.312 1.83 0.473-3.89 2.6-8.04 4.07-12.4 5.78-2.74 0.946-2.74 0.946-3.62 3.22-5.07 2.41-9.64 2.21-15 1-1.35-0.624-2.69-1.28-4-2 1.17-0.398 2.34-0.797 3.54-1.21 1.55-0.535 3.1-1.07 4.64-1.61 0.769-0.261 1.54-0.522 2.33-0.791 4.16-1.45 7.73-3.07 11.5-5.4 3.24-1.2 5.42-0.894 8.75-0.0625z" fill="#C2C5C6"/>
<path transform="translate(13,46)" d="m0 0c3.63 0.33 7.26 0.66 11 1v9h-6v4c-1.65 0.33-3.3 0.66-5 1v-5h-4c-1.12-4.75-1.12-4.75 0-7h4v-3z" fill="#FAFCFE"/>
<path transform="translate(831,34)" d="m0 0c1.32 0.66 2.64 1.32 4 2-0.99 0.99-1.98 1.98-3 3h8v4h5v6c-2.52 1.26-3.85 0.919-6.62 0.562-0.817-0.102-1.63-0.204-2.48-0.309-0.626-0.0838-1.25-0.168-1.9-0.254v-3h-7v-7h4v-5z" fill="#FAFDFF"/>
<path transform="translate(290,34)" d="m0 0h14v4h3c0.0425 2 0.0408 4 0 6-1 1-1 1-3.72 1.1-1.65-0.0174-1.65-0.0174-3.34-0.0352-1.66-0.0135-1.66-0.0135-3.35-0.0273-0.855-0.0116-1.71-0.0232-2.59-0.0352v-5h-4v-6z" fill="#FAFDFF"/>
<path transform="translate(1180,36)" d="m0 0v3h4v6h-10v4h4v6h-6v-5h-4v-6h6c-0.33-2.31-0.66-4.62-1-7 2.49-0.687 4.38-1 7-1z" fill="#FAFCFF"/>
<path transform="translate(877,36)" d="m0 0c0.99 0.33 1.98 0.66 3 1h-2v2h4c0.33-0.99 0.66-1.98 1-3v3h5v6c-0.99 0.33-1.98 0.66-3 1v3h-10v-4h-2v-6h4v-3z" fill="#FAFDFF"/>
<path transform="translate(1532,44)" d="m0 0c1.75 0.0662 3.5 0.0855 5.25 0.0625 1.34-0.0135 1.34-0.0135 2.7-0.0273 0.675-0.0116 1.35-0.0232 2.05-0.0352v7h-7v4h-6v-6h-4c0.375-2.44 0.375-2.44 1-5 2.56-1.28 3.28-0.698 6 0z" fill="#FAFDFF"/>
<path transform="translate(762,36)" d="m0 0v3h2v6h-6c-0.125-5.75-0.125-5.75 1-8h-2v3h-11c0.33-1.32 0.66-2.64 1-4-1.65 0.33-3.3 0.66-5 1 0.33 0.99 0.66 1.98 1 3h-2v-6c8.05-1.31 13.7-1.59 21 2z" fill="#FAFDFF"/>
<path transform="translate(1588,72)" d="m0 0h10v14h-9c-1.05-3.15-1.1-5.39-1.06-8.69 0.00902-0.994 0.018-1.99 0.0273-3.01 0.0116-0.759 0.0232-1.52 0.0352-2.3z" fill="#FDFCFF"/>
<path transform="translate(247,34)" d="m0 0h11v1h-5c0.33 0.99 0.66 1.98 1 3h6v8h-4v4h-6v-6h3v-4h-6v-6z" fill="#FAFDFF"/>
<path transform="translate(44,49)" d="m0 0h17v4h2v2h-9v3h-5c-0.33-0.99-0.66-1.98-1-3h-4v-6z" fill="#FBFCFF"/>
<path transform="translate(181,33)" d="m0 0h1v7c0.99-0.33 1.98-0.66 3-1 2.23-0.0694 4.46-0.0846 6.69-0.0625 1.77 0.0135 1.77 0.0135 3.57 0.0273 0.904 0.0116 1.81 0.0232 2.74 0.0352v6c-6.3 2.1-11.9 1.04-18-1 0.33-3.63 0.66-7.26 1-11z" fill="#FAFDFF"/>
<path transform="translate(100,39)" d="m0 0v6c-0.99 0.495-0.99 0.495-2 1-0.33 0.99-0.66 1.98-1 3h-7v-3c-1.32-0.33-2.64-0.66-4-1v-6c4.97-0.913 9.03-0.913 14 0z" fill="#FAFDFF"/>
<path transform="translate(1318,26)" d="m0 0c0.724 0.0838 1.45 0.168 2.2 0.254 5.22 0.549 9.63 0.732 14.8-0.254 1.67 0.333 3.33 0.667 5 1 1.01-0.206 2.02-0.413 3.06-0.625 2.94-0.375 2.94-0.375 5.06 0.938 0.619 0.557 1.24 1.11 1.88 1.69 1.32 0.66 2.64 1.32 4 2h-30c-0.33-0.99-0.66-1.98-1-3-1.65-0.33-3.3-0.66-5-1v-1z" fill="#999C9D"/>
<path transform="translate(601 25.9)" d="m0 0c0.719 0.128 1.44 0.255 2.18 0.387 3.25 0.497 6.27 0.725 9.56 0.625 3.79-0.0598 6.78 0.611 10.3 2.06-3.26 2.94-5.41 3.38-9.75 3.36-1.1-6.45e-4 -2.2-0.00129-3.34-0.00195-1.15-0.0161-2.29-0.0322-3.47-0.0488-1.72 0.00483-1.72 0.00483-3.48 0.00977-8.55-0.0551-8.55-0.0551-12-2.32 0.763-0.103 1.53-0.206 2.31-0.312 2.72-0.431 2.72-0.431 4.1-2.25 1.59-1.44 1.59-1.44 3.54-1.51z" fill="#B3B6B7"/>
<path transform="translate(287 20.1)" d="m0 0c0.536 0.309 1.07 0.619 1.62 0.938-5.29 4.7-8.7 5.52-15.7 5.27-2.26-0.273-2.26-0.273-3.26-1.27-1.33-0.362-2.66-0.697-4-1 2.03-1.04 4.08-2.06 6.12-3.06 1.14-0.568 2.27-1.14 3.45-1.72 4.55-1.61 7.47-1.09 11.8 0.848z" fill="#BBBFBF"/>
<path transform="translate(1479,74)" d="m0 0h13v6h-7v2h-9v-2h3v-6z" fill="#FAFDFF"/>
<path transform="translate(514,36)" d="m0 0c0.66 0.33 1.32 0.66 2 1-0.33 0.66-0.66 1.32-1 2h4c0.33-0.99 0.66-1.98 1-3-0.114 1.48-0.241 2.96-0.375 4.44-0.0696 0.824-0.139 1.65-0.211 2.5-0.137 0.682-0.273 1.36-0.414 2.07-2.5 1.25-4.27 1.13-7.06 1.12-1.35 0.00387-1.35 0.00387-2.72 0.00781-2.21-0.133-2.21-0.133-3.21-1.13-0.0408-2-0.0425-4 0-6h8v-3z" fill="#FAFDFF"/>
<path transform="translate(18,22)" d="m0 0c6 3 12 6 18 9-0.33 0.99-0.66 1.98-1 3-3.88-1.75-3.88-1.75-5-4-2-0.295-4-0.581-6.01-0.777-1.99-0.223-1.99-0.223-4.18-0.848-2.46-0.509-4.35 0.121-6.81 0.625-5.23 0.479-8.64 0.27-13-3 0.33-0.66 0.66-1.32 1-2 1.05 0.773 1.05 0.773 2.12 1.56 3.61 1.81 5.04 1.61 8.88 0.438 3.31-1.95 3.31-1.95 6-4z" fill="#6D6F70"/>
<path transform="translate(1071 33.9)" d="m0 0c1.13 0.0206 2.27 0.0412 3.44 0.0625v3h4c-0.625 2.38-0.625 2.38-2 5-3.63 1.7-5.16 2.28-9 1v-3h-2c1.07-5.98 1.07-5.98 5.56-6.06z" fill="#FAFCFE"/>
<path transform="translate(1438 18.8)" d="m0 0c3.08 0.211 5.8-0.0604 8.79-0.809-0.33 0.66-0.66 1.32-1 2h-2c-0.66 1.32-1.32 2.64-2 4-7.86 0.429-14-1.39-21-5 5.95-1.03 11.2-0.792 17.2-0.191z" fill="#C0C4C4"/>
<path transform="translate(757,26)" d="m0 0c4.06 0.975 6.55 1.66 9.94 4.19 3.6 2.13 4.78 1.58 8.71 0.77 4.35 0.0796 7.86 2.7 11.5 4.89 2.78 1.49 2.78 1.49 5.51 0.273 1.15-0.555 1.15-0.555 2.32-1.12 0.99 0.33 1.98 0.66 3 1-4.1 3.98-4.1 3.98-7.81 4.06-2.92-0.975-4.29-1.84-6.69-3.62-3.96-2.7-6.96-2.63-11.7-2.44-6.46 0.255-6.46 0.255-10-2.31-0.598-0.887-1.2-1.77-1.81-2.69-0.598-0.598-1.2-1.2-1.81-1.81-0.392-0.392-0.784-0.784-1.19-1.19z" fill="#000101"/>
<path transform="translate(109,43)" d="m0 0c1.86 0.0898 3.71 0.246 5.56 0.438 1.52 0.153 1.52 0.153 3.07 0.309 1.17 0.126 1.17 0.126 2.37 0.254v6h-12c0-6 0-6 1-7z" fill="#FAFDFF"/>
<path transform="translate(812,39)" d="m0 0h13v6h-13v-6z" fill="#FAFDFF"/>
<path transform="translate(141 78.9)" d="m0 0c0.995 0.00212 0.995 0.00212 2.01 0.00429 2.12 0.0056 4.24 0.0182 6.36 0.0309 1.44 0.00501 2.87 0.00958 4.31 0.0137 3.52 0.011 7.04 0.0283 10.6 0.0488 0.495 1.48 0.495 1.48 1 3h-12v-2h-10v2h-11v-2c2.92-1.46 5.5-1.11 8.76-1.1z" fill="#FAFDFF"/>
<path transform="translate(1566 24.2)" d="m0 0c0.816 0.504 1.63 1.01 2.47 1.53 3.53 1.84 5.6 1.28 9.34 0.223v2c-6.07 1.56-10 2.39-16 0-5.17-0.376-9.14 0.414-14 2 5.11-5.52 11-9.73 18.2-5.75z" fill="#666869"/>
<path transform="translate(1584,20)" d="m0 0c0.99 0.33 1.98 0.66 3 1-0.567 1.46-1.15 2.92-1.75 4.38-0.325 0.812-0.65 1.62-0.984 2.46-1.5 2.57-2.46 3.25-5.27 4.16-2.75-0.0301-5.27-0.545-8-1 0.33-0.66 0.66-1.32 1-2 3.06-0.625 3.06-0.625 6-1 0.0619-0.578 0.124-1.16 0.188-1.75 1.16-3.21 2.99-4.43 5.81-6.25z" fill="#CDD1D2"/>
<path transform="translate(1409,15)" d="m0 0c4.49 0.587 8.23 1.76 12.4 3.56 1.06 0.455 2.12 0.91 3.21 1.38 0.797 0.349 1.59 0.699 2.41 1.06-0.33 0.99-0.66 1.98-1 3-3.4 1.51-6.5 0.99-10 0-1.06-1.75-1.06-1.75-2-4-1.63-1.7-3.29-3.38-5-5z" fill="#E8ECED"/>
<path transform="translate(796,49)" d="m0 0h11v6h-11v-6z" fill="#FAFDFF"/>
<path transform="translate(403,45)" d="m0 0h11v6h-11v-6z" fill="#FAFDFF"/>
<path transform="translate(416,37)" d="m0 0v1h-13v6h-7c-0.0425-2-0.0408-4 0-6 4.02-4.02 14.9-1.69 20-1z" fill="#FBFCFF"/>
<path transform="translate(120,79)" d="m0 0v3h-20c-0.33-0.99-0.66-1.98-1-3 2.37-0.196 4.75-0.382 7.12-0.562 0.665-0.0561 1.33-0.112 2.02-0.17 4.13-0.304 7.81-0.12 11.9 0.732z" fill="#FAFDFF"/>
<path transform="translate(1324,35)" d="m0 0c1.32 0.33 2.64 0.66 4 1h-2v4c1.98-0.33 3.96-0.66 6-1v6c-2.71 1.35-5.01 1.07-8 1v-11z" fill="#FAFDFF"/>
<path transform="translate(384,22)" d="m0 0c1.82 0.695 1.82 0.695 4 2 0.995 0.498 1.99 0.995 3.02 1.51 2.99 1.5 5.99 2.99 8.98 4.49-3.18 1.59-5.71-0.0175-9-1h-3v-2h-2.31-5.69c-0.99 0.66-1.98 1.32-3 2-3.19 0.125-3.19 0.125-6 0v-1c1.27-0.371 1.27-0.371 2.56-0.75 2.76-1 4.64-1.95 7.06-3.5 1.11-0.578 2.23-1.16 3.38-1.75z" fill="#4C4D4D"/>
<path transform="translate(702,35)" d="m0 0c2.31 0.33 4.62 0.66 7 1 0.33 0.99 0.66 1.98 1 3h-2v6h-6v-10z" fill="#FAFCFE"/>
<path transform="translate(1484 22.6)" d="m0 0c0.681 0.454 1.36 0.907 2.06 1.38 0.995 0.498 1.99 0.995 3.02 1.51 2.99 1.5 5.99 2.99 8.98 4.49-3.18 1.59-5.71-0.0175-9-1h-3v-2h-2.38-4.62c-0.639 0.351-1.28 0.701-1.94 1.06-2.06 0.938-2.06 0.938-5.06-0.0625 1.57-1.06 3.16-2.1 4.75-3.12 0.882-0.58 1.76-1.16 2.67-1.76 2.58-1.12 2.58-1.12 4.52-0.492z" fill="#616363"/>
<path transform="translate(1193,22)" d="m0 0c2.93 0.391 5.49 1.44 8 3 0.33 0.99 0.66 1.98 1 3-1.32 0.33-2.64 0.66-4 1v-2c-4.28-0.268-7.31-0.0473-11.3 1.56-1.22 0.474-2.43 0.949-3.69 1.44-0.66-0.33-1.32-0.66-2-1 0.699-0.338 1.4-0.675 2.12-1.02 0.91-0.446 1.82-0.892 2.76-1.35 0.905-0.441 1.81-0.882 2.74-1.34 2.48-1.19 2.48-1.19 4.38-3.29z" fill="#767878"/>
<path transform="translate(1300 78.1)" d="m0 0c1.47 0.0725 1.47 0.0725 2.97 0.146 1.52 0.0841 1.52 0.0841 3.08 0.17 1.55 0.0783 1.55 0.0783 3.12 0.158 2.54 0.129 5.08 0.264 7.62 0.404v1h-11v2h-15v-3c3.19-0.965 5.89-1.05 9.2-0.879z" fill="#FAFDFF"/>
<path transform="translate(1491,35)" d="m0 0c3.3 0.66 6.6 1.32 10 2 0.33 0.99 0.66 1.98 1 3-0.638-0.0116-1.28-0.0232-1.93-0.0352-0.826-0.00902-1.65-0.018-2.5-0.0273-0.824-0.0116-1.65-0.0232-2.5-0.0352-2.06-0.135-2.06-0.135-3.07 1.1-2 0.0408-4 0.0425-6 0v-5h2v2h3v-3z" fill="#FAFDFF"/>
<path transform="translate(829,22)" d="m0 0c2.31 0.781 2.31 0.781 5 2 0.883 0.353 1.77 0.706 2.68 1.07 2.44 0.977 4.88 1.95 7.32 2.93v1c-7.75 1.12-7.75 1.12-10 0v-2c-1.67 0.0619-1.67 0.0619-3.38 0.125-3.62-0.125-3.62-0.125-5.62-2.12 1.69-1.62 1.69-1.62 4-3z" fill="#858788"/>
<path transform="translate(1545,32)" d="m0 0c-0.33 0.66-0.66 1.32-1 2-1.3-0.0825-2.6-0.165-3.94-0.25-5.34-0.0254-9.44 1.68-14.1 4.25-0.33 0.33-0.66 0.66-1 1-2.81 0.312-2.81 0.312-6 0-2.38-2-2.38-2-4-4 2.76 0.523 5.33 1.11 8 2 2.68-1.26 2.68-1.26 5.56-3 5.92-3.13 9.98-3.57 16.4-2z" fill="#010201"/>
<path transform="translate(273,25)" d="m0 0h-2c-0.309 0.639-0.619 1.28-0.938 1.94-1.06 2.06-1.06 2.06-2.06 3.06-1.69 0.0721-3.38 0.0839-5.06 0.0625-0.919-0.00902-1.84-0.018-2.79-0.0273-0.71-0.0116-1.42-0.0232-2.15-0.0352v-2c4.56-3.45 9.5-4.83 15-3z" fill="#E5E9EA"/>
<path transform="translate(813,31)" d="m0 0c0 3 0 3-2 6-1.6-0.114-3.21-0.242-4.81-0.375-0.893-0.0696-1.79-0.139-2.71-0.211-2.48-0.414-2.48-0.414-5.48-2.41 3.21-1.91 5.48-2.2 9.19-2.06 1.6 0.054 3.21 0.083 4.81 0.0625 0.33-0.33 0.66-0.66 1-1z" fill="#7A7D7D"/>
<path transform="translate(380,74)" d="m0 0h6v8h-6v-8z" fill="#FAFDFF"/>
<path transform="translate(1035,39)" d="m0 0h8v6h-8v-6z" fill="#FAFDFF"/>
<path transform="translate(1025,39)" d="m0 0h8v6h-8v-6z" fill="#FAFDFF"/>
<path transform="translate(896,39)" d="m0 0h8v6h-8v-6z" fill="#FAFDFF"/>
<path transform="translate(249,28)" d="m0 0v2c-7.61 1.73-15.4 1.36-23 0v-1c7.65-1.25 15.3-1.09 23-1z" fill="#F5F8F9"/>
<path transform="translate(1289,39)" d="m0 0v6h-7c-0.33-1.65-0.66-3.3-1-5 3.07-1.86 4.6-2.22 8-1z" fill="#FAFDFF"/>
<path transform="translate(97,22)" d="m0 0c2.47 1.15 4.05 2.05 6 4-0.928 0.0825-1.86 0.165-2.81 0.25-4.51 0.609-8.54 2.31-12.7 4.01-2.45 0.742-2.45 0.742-5.45-0.258 0.999-0.494 2-0.987 3.03-1.5 1.3-0.647 2.61-1.29 3.91-1.94 0.659-0.325 1.32-0.651 2-0.986 3.25-1.47 3.25-1.47 6.06-3.58z" fill="#4E5050"/>
<path transform="translate(1598 15.8)" d="m0 0c0.825 0.413 1.65 0.825 2.5 1.25v4c-1.77 0.0541-3.54 0.0928-5.31 0.125-1.48 0.0348-1.48 0.0348-2.99 0.0703-2.7-0.195-2.7-0.195-5.7-2.2 6.9-4.24 6.9-4.24 11.5-3.25z" fill="#D3D6D7"/>
<path transform="translate(44,49)" d="m0 0h10v4c-3.3 0.33-6.6 0.66-10 1v-5z" fill="#FEFCFF"/>
<path transform="translate(1592,44)" d="m0 0c1.32 0.33 2.64 0.66 4 1 0.578 4.41 1 8.56 1 13h-3c-0.337-1.77-0.669-3.54-1-5.31-0.186-0.986-0.371-1.97-0.562-2.99-0.438-2.7-0.438-2.7-0.438-5.7z" fill="#FEFCFF"/>
<path transform="translate(430,49)" d="m0 0h5v6c-3.63-0.33-7.26-0.66-11-1v-2h6v-3z" fill="#FAFDFF"/>
<path transform="translate(0,33)" d="m0 0h5c-0.33 1.65-0.66 3.3-1 5 0.66 0.33 1.32 0.66 2 1h-4v8h-2v-14z" fill="#FEFCFF"/>
<path transform="translate(380,51)" d="m0 0h7v6h-7v-6z" fill="#FAFDFF"/>
<path transform="translate(462,22)" d="m0 0c2.72 1.01 5.06 2.04 7.5 3.62 2.82 1.55 4.34 1.62 7.5 1.38h3c-2.46 2.46-4.57 2.8-7.98 3.18-3.37-0.299-4.85-2.77-7.02-5.18-2.71-0.42-2.71-0.42-5 0 0.66-0.99 1.32-1.98 2-3z" fill="#454747"/>
<path transform="translate(1270,29)" d="m0 0h7c-0.33 1.98-0.66 3.96-1 6h-6v-6z" fill="#FAFDFF"/>
<path transform="translate(49,60)" d="m0 0h6v6h-6v-6z" fill="#FAFDFF"/>
<path transform="translate(106,54)" d="m0 0h6v6h-6v-6z" fill="#FAFDFF"/>
<path transform="translate(1337,51)" d="m0 0h6v6h-6v-6z" fill="#FAFDFF"/>
<path transform="translate(1301,51)" d="m0 0h6v6h-6v-6z" fill="#FAFDFF"/>
<path transform="translate(1148,49)" d="m0 0h6v6h-6v-6z" fill="#FAFDFF"/>
<path transform="translate(1140,45)" d="m0 0h6v6h-6v-6z" fill="#FAFDFF"/>
<path transform="translate(1053,43)" d="m0 0h6v6h-6v-6z" fill="#FAFDFF"/>
<path transform="translate(282,43)" d="m0 0h6v6h-6v-6z" fill="#FAFDFF"/>
<path transform="translate(138,43)" d="m0 0h6v6h-6v-6z" fill="#FAFDFF"/>
<path transform="translate(1492,41)" d="m0 0h6v6h-6v-6z" fill="#FAFDFF"/>
<path transform="translate(556,40)" d="m0 0h6v6h-6v-6z" fill="#FAFDFF"/>
<path transform="translate(522,39)" d="m0 0h6v6h-6v-6z" fill="#FAFDFF"/>
<path transform="translate(262,39)" d="m0 0h6v6h-6v-6z" fill="#FAFDFF"/>
<path transform="translate(1472,38)" d="m0 0h6v6h-6v-6z" fill="#FAFDFF"/>
<path transform="translate(906,34)" d="m0 0h6v6h-6v-6z" fill="#FAFDFF"/>
<path transform="translate(1587,44)" d="m0 0c1.32 0.33 2.64 0.66 4 1 0.33 2.64 0.66 5.28 1 8-1.98 0.99-1.98 0.99-4 2-0.33-3.63-0.66-7.26-1-11z" fill="#FEFCFF"/>
<path transform="translate(1563,39)" d="m0 0v4h-10v-2c3.4-2.09 6.05-2.18 10-2z" fill="#FBFCFD"/>
<path transform="translate(1040 11.2)" d="m0 0c1.62 0.812 1.62 0.812 2.62 2.81-4.4 3.05-4.4 3.05-7.12 2.81-1.88-0.812-1.88-0.812-4.88-2.81 6.35-3.05 6.35-3.05 9.38-2.81z" fill="#BEBFC0"/>
<path transform="translate(979,34)" d="m0 0c1.79-0.027 3.58-0.0464 5.38-0.0625 0.998-0.0116 2-0.0232 3.02-0.0352 2.6 0.0977 2.6 0.0977 4.6 1.1-0.33 0.66-0.66 1.32-1 2-1.32-0.66-2.64-1.32-4-2v3h-6v-3c-0.66-0.33-1.32-0.66-2-1z" fill="#FEFCFF"/>
<path transform="translate(215,38)" d="m0 0v6h-6v-5c4.88-1 4.88-1 6-1z" fill="#FAFDFF"/>
<path transform="translate(966,28)" d="m0 0h9v2c-3.67 0.853-7.04 1.11-10.8 1.06-1.46-0.0135-1.46-0.0135-2.96-0.0273-1.1-0.0174-1.1-0.0174-2.23-0.0352v-1h7v-2z" fill="#F4F8F9"/>
<path transform="translate(417,35)" d="m0 0c1.11 0.248 1.11 0.248 2.25 0.5 4.15 0.755 7.68 0.405 11.8-0.5-1.83 2.03-3.45 3.71-5.88 5-3.45 0-5.47-1.95-8.12-4v-1z" fill="#000100"/>
<path transform="translate(1332,34)" d="m0 0v5c-1.98 0.33-3.96 0.66-6 1v-4c3.75-2 3.75-2 6-2z" fill="#FAFCFD"/>
<path transform="translate(757,26)" d="m0 0c8 2 8 2 11 5v3c-3 0-3 0-5.5-2.31-0.825-0.887-1.65-1.77-2.5-2.69-0.598-0.598-1.2-1.2-1.81-1.81-0.392-0.392-0.784-0.784-1.19-1.19z" fill="#67696A"/>
</svg>
